<?xml version="1.0" encoding="UTF-8"?>
<svg width="160px" height="159px" viewBox="0 0 160 159" version="1.1" xmlns="http://www.w3.org/2000/svg" xmlns:xlink="http://www.w3.org/1999/xlink">
    <!-- Generator: Sketch 3.7.2 (28276) - http://www.bohemiancoding.com/sketch -->
    <title>logo_white</title>
    <desc>Created with Sketch.</desc>
    <defs></defs>
    <g id="Page-1" stroke="none" stroke-width="1" fill="none" fill-rule="evenodd">
        <g id="logo_white" transform="translate(2.000000, 2.000000)" stroke-width="3" stroke="#FFFFFF">
            <g id="logo">
                <path d="M33.6426435,14.3767188 L47.3314551,32.5895304" id="Fill-2"></path>
                <path d="M33.6426435,14.3767188 L47.3314551,32.5895304" id="Stroke-3"></path>
                <path d="M47.3318319,32.5894551 L78.0472522,1.32841159" id="Fill-5"></path>
                <path d="M47.3318319,32.5894551 L78.0472522,1.32841159" id="Stroke-6"></path>
                <path d="M34.0507304,15.6587826 L11.9567594,78.1288696" id="Fill-8"></path>
                <path d="M34.0507304,15.6587826 L11.9567594,78.1288696" id="Stroke-9"></path>
                <path d="M11.9568348,78.1287942 L14.5568348,122.713896" id="Fill-11"></path>
                <path d="M11.9568348,78.1287942 L14.5568348,122.713896" id="Stroke-12"></path>
                <path d="M11.9568348,78.1287942 L47.5956754,32.5896058" id="Fill-14"></path>
                <path d="M11.9568348,78.1287942 L47.5956754,32.5896058" id="Stroke-15"></path>
                <path d="M44.5686725,103.650545 L78.2360348,78.1290957" id="Fill-17"></path>
                <path d="M44.5686725,103.650545 L78.2360348,78.1290957" id="Stroke-18"></path>
                <path d="M78.2362609,78.1287942 L47.3316812,32.5896058" id="Fill-20"></path>
                <path d="M78.2362609,78.1287942 L47.3316812,32.5896058" id="Stroke-21"></path>
                <path d="M47.3318319,32.5894551 L90.9914841,42.0617449" id="Fill-23"></path>
                <path d="M47.3318319,32.5894551 L90.9914841,42.0617449" id="Stroke-24"></path>
                <path d="M90.9915594,42.0620464 L99.9370667,14.5020464" id="Fill-26"></path>
                <path d="M90.9915594,42.0620464 L99.9370667,14.5020464" id="Stroke-27"></path>
                <path d="M99.9372174,14.5021971 L47.332058,32.5891536" id="Fill-29"></path>
                <path d="M99.9372174,14.5021971 L47.332058,32.5891536" id="Stroke-30"></path>
                <path d="M99.9372174,14.5021971 L129.238841,42.0621971" id="Fill-32"></path>
                <path d="M99.9372174,14.5021971 L129.238841,42.0621971" id="Stroke-33"></path>
                <path d="M129.23869,42.0620464 L155.740603,75.6638435" id="Fill-35"></path>
                <path d="M129.23869,42.0620464 L155.740603,75.6638435" id="Stroke-36"></path>
                <path d="M155.740603,75.6641449 L110.447096,122.075275" id="Fill-38"></path>
                <path d="M155.740603,75.6641449 L110.447096,122.075275" id="Stroke-39"></path>
                <path d="M110.447397,122.075275 L122.817368,141.883507" id="Fill-41"></path>
                <path d="M110.447397,122.075275 L122.817368,141.883507" id="Stroke-42"></path>
                <path d="M110.447397,122.075275 L88.8824696,155.37713" id="Fill-44"></path>
                <path d="M110.447397,122.075275 L88.8824696,155.37713" id="Stroke-45"></path>
                <path d="M89.4997623,154.425907 L56.5792406,140.598429" id="Fill-47"></path>
                <path d="M89.4997623,154.425907 L56.5792406,140.598429" id="Stroke-48"></path>
                <path d="M56.5791652,140.598655 L15.7388174,122.306713" id="Fill-50"></path>
                <path d="M56.5791652,140.598655 L15.7388174,122.306713" id="Stroke-51"></path>
                <path d="M44.5686725,103.650545 L56.5791652,140.598429" id="Fill-53"></path>
                <path d="M44.5686725,103.650545 L56.5791652,140.598429" id="Stroke-54"></path>
                <path d="M56.5791652,140.598655 L110.447397,122.075351" id="Fill-56"></path>
                <path d="M56.5791652,140.598655 L110.447397,122.075351" id="Stroke-57"></path>
                <path d="M110.447397,122.075275 L44.5686725,103.650696" id="Fill-59"></path>
                <path d="M110.447397,122.075275 L44.5686725,103.650696" id="Stroke-60"></path>
                <path d="M78.2362609,78.1287942 L110.447623,122.075577" id="Fill-62"></path>
                <path d="M78.2362609,78.1287942 L110.447623,122.075577" id="Stroke-63"></path>
                <path d="M110.447397,122.075275 L114.587803,78.5354493" id="Fill-65"></path>
                <path d="M110.447397,122.075275 L114.587803,78.5354493" id="Stroke-66"></path>
                <path d="M114.588029,79.7248 L78.2362609,78 L114.588029,79.7248 Z" id="Fill-68"></path>
                <path d="M78.2362609,78.1287942 L114.588029,79.5301942" id="Stroke-69"></path>
                <path d="M114.696852,78.8111246 L155.230475,75.164342" id="Fill-70"></path>
                <path d="M114.696852,78.8111246 L155.230475,75.164342" id="Stroke-71"></path>
                <path d="M114.587954,78.5351478 L129.238388,42.0620464" id="Fill-73"></path>
                <path d="M114.587954,78.5351478 L129.238388,42.0620464" id="Stroke-74"></path>
                <path d="M90.9915594,42.0620464 L114.588255,78.5351478" id="Fill-76"></path>
                <path d="M90.9915594,42.0620464 L114.588255,78.5351478" id="Stroke-77"></path>
                <path d="M90.9915594,42.0620464 L78.236487,78.1289449" id="Fill-79"></path>
                <path d="M90.9915594,42.0620464 L78.236487,78.1289449" id="Stroke-80"></path>
                <path d="M99.9372174,14.5021971 L78.0474783,1.32811014" id="Fill-82"></path>
                <path d="M99.9372174,14.5021971 L78.0474783,1.32811014" id="Stroke-83"></path>
                <path d="M99.9372174,14.5021971 L106.902957,4.59129855" id="Fill-85"></path>
                <path d="M99.9372174,14.5021971 L106.902957,4.59129855" id="Stroke-86"></path>
                <path d="M0.422481159,79.7248 L11.9566841,78 L0.422481159,79.7248 Z" id="Fill-88"></path>
                <path d="M11.9568348,78.1287942 L0.422631884,79.5301942" id="Stroke-89"></path>
                <path d="M56.5791652,140.598655 L50.0919768,149.61651" id="Fill-91"></path>
                <path d="M56.5791652,140.598655 L50.0919768,149.61651" id="Stroke-92"></path>
                <path d="M10.5654957,39.4589565 L13.1654957,78.1288696" id="Fill-94"></path>
                <path d="M10.5654957,39.4589565 L13.1654957,78.1288696" id="Stroke-95"></path>
                <path d="M110.447397,122.075275 L150.412788,103.637884" id="Fill-97"></path>
                <path d="M110.447397,122.075275 L150.412788,103.637884" id="Stroke-98"></path>
                <path d="M47.3318319,32.5894551 L44.5690493,103.650846" id="Fill-100"></path>
                <path d="M47.3318319,32.5894551 L44.5690493,103.650846" id="Stroke-101"></path>
                <path d="M11.9568348,78.1287942 L44.568371,103.650243" id="Fill-103"></path>
                <path d="M11.9568348,78.1287942 L44.568371,103.650243" id="Stroke-104"></path>
                <path d="M44.5686725,103.650545 L14.0514551,122.386371" id="Fill-106"></path>
                <path d="M44.5686725,103.650545 L14.0514551,122.386371" id="Stroke-107"></path>
                <path d="M91.3033333,41 L129.738116,41 L91.3033333,41 Z" id="Fill-109"></path>
                <path d="M91.3036348,41 L129.738417,41" id="Stroke-110"></path>
                <polygon id="Stroke-111" points="150.413014 103.638035 122.817594 141.883658 88.8826957 155.377281 50.0914493 149.616586 14.4563768 122.713745 0.422405797 78.5348464 10.5654203 39.4587304 33.6428696 14.3766435 78.8542319 0.402208696 106.903333 4.5916 140.734986 33.9467304 155.740377 75.6642957"></polygon>
                <path d="M129.23869,42.0620464 L140.735212,33.9470319" id="Fill-113"></path>
                <path d="M129.23869,42.0620464 L140.735212,33.9470319" id="Stroke-114"></path>
                <path d="M99.9372174,14.5021971 L140.133217,33.9471826" id="Fill-116"></path>
                <path d="M99.9372174,14.5021971 L140.133217,33.9471826" id="Stroke-117"></path>
            </g>
        </g>
    </g>
</svg>